<svg xmlns="http://www.w3.org/2000/svg" height="40" viewBox="0 -960 960 960" width="40"><path d="M237.809-258.653q57.127-39.654 115.435-61.641Q411.551-342.281 480-342.281t126.795 21.987q58.346 21.987 116.294 61.641 41.962-47.808 63.123-102.903 21.16-55.094 21.16-118.334 0-137.828-94.827-232.655T480-807.372q-137.718 0-232.545 94.827T152.628-479.89q0 63.24 21.366 118.334 21.365 55.095 63.815 102.903Zm242.124-197.168q-54.01 0-90.753-36.811-36.743-36.81-36.743-90.82 0-54.009 36.81-90.753 36.81-36.743 90.82-36.743 54.01 0 90.753 36.81 36.743 36.811 36.743 90.82 0 54.01-36.81 90.753-36.81 36.744-90.82 36.744Zm.212 351.076q-77.654 0-146.232-29.558-68.579-29.558-119.329-80.461T134.29-333.935q-29.545-68.267-29.545-146.21 0-77.633 29.558-146.022 29.558-68.39 80.461-119.194 50.903-50.805 119.171-80.349 68.267-29.545 146.21-29.545 77.633 0 146.022 29.558 68.39 29.558 119.194 80.461 50.805 50.903 80.349 119.226 29.545 68.322 29.545 145.865 0 77.654-29.558 146.232-29.558 68.579-80.461 119.329T626.01-134.29q-68.322 29.545-145.865 29.545Zm-.177-47.883q54.789 0 106.975-17.391 52.186-17.391 98.109-54.238-45.923-33.372-97.264-51.756-51.34-18.385-107.716-18.385-56.377 0-108.327 17.846-51.951 17.846-96.541 52.295 45.667 36.847 97.822 54.238 52.154 17.391 106.942 17.391Zm.068-351.076q34.362 0 57.003-22.677t22.641-57.039q0-34.362-22.677-57.004-22.677-22.641-57.039-22.641t-57.003 22.677q-22.641 22.677-22.641 57.039t22.677 57.003q22.677 22.642 57.039 22.642ZM480-583.385Zm0 359.872Z"/></svg>