<svg xmlns="http://www.w3.org/2000/svg" height="40" viewBox="0 -960 960 960" width="40"><path d="M477.659-144.27q-133.957 0-229.673-91.122-95.716-91.121-103.151-224.98h48.293q7.936 113.321 89.305 190.77 81.37 77.448 195.139 77.448 120.787 0 205.159-84.757 84.372-84.758 84.372-205.636 0-119.391-84.676-202.345-84.675-82.954-205.132-82.954-64.468 0-120.811 28.089-56.342 28.09-98.291 75.915h100.628v47.827H176.246v-182.421h47.883v100.244q48.295-55.025 113.947-86.281 65.652-31.257 139.279-31.257 69.76 0 131.094 26.294 61.333 26.294 107.166 71.602 45.833 45.309 72.602 106.182 26.769 60.873 26.769 130.506 0 69.889-26.769 131.37-26.769 61.48-72.442 106.987-45.673 45.506-107.031 72.012-61.358 26.507-131.085 26.507Zm127.56-179.589L457.59-470.823v-208.292h47.884v188.513L639.589-358.23l-34.37 34.371Z"/></svg>