<svg xmlns="http://www.w3.org/2000/svg" height="20" viewBox="0 -960 960 960" width="20"><path d="M479.628-142Q444-142 419-167.372q-25-25.371-25-61Q394-264 419.372-289q25.371-25 61-25Q516-314 541-288.628q25 25.371 25 61Q566-192 540.628-167q-25.371 25-61 25Zm0-252Q444-394 419-419.372q-25-25.371-25-61Q394-516 419.372-541q25.371-25 61-25Q516-566 541-540.628q25 25.371 25 61Q566-444 540.628-419q-25.371 25-61 25Zm0-252Q444-646 419-671.372q-25-25.371-25-61Q394-768 419.372-793q25.371-25 61-25Q516-818 541-792.628q25 25.371 25 61Q566-696 540.628-671q-25.371 25-61 25Z"/></svg>